<svg width="10" height="10" xmlns="http://www.w3.org/2000/svg" fill="none">
 <g>
  <title>Layer 1</title>
  <path stroke="null" id="svg_1" fill="#FF5733" d="m5,1.23662c0.17963,0 0.32526,0.14442 0.32526,0.32258l0,1.03224c0,0.17815 -0.14563,0.32258 -0.32526,0.32258c-0.17963,0 -0.32526,-0.14442 -0.32526,-0.32258l0,-1.03224c0,-0.17815 0.14563,-0.32258 0.32526,-0.32258zm2.68322,1.10227c0.12702,0.12597 0.12702,0.33021 0,0.45619l-0.73599,0.7299c-0.12702,0.12598 -0.33293,0.12598 -0.45995,0c-0.12702,-0.12597 -0.12702,-0.33021 0,-0.45619l0.73594,-0.7299c0.12702,-0.12598 0.33297,-0.12598 0.46,0zm-5.36654,0.00007c0.12702,-0.12597 0.33296,-0.12597 0.45998,0l0.73597,0.72991c0.12702,0.12597 0.12702,0.33022 0,0.45619c-0.12702,0.12597 -0.33296,0.12597 -0.45998,0l-0.73597,-0.72991c-0.12702,-0.12597 -0.12702,-0.33021 0,-0.45619zm-1.11133,2.66104c0,-0.17815 0.14562,-0.32258 0.32526,-0.32258l1.04082,0c0.17963,0 0.32526,0.14443 0.32526,0.32258c0,0.17815 -0.14562,0.32258 -0.32526,0.32258l-1.04082,0c-0.17963,0 -0.32526,-0.14443 -0.32526,-0.32258zm5.89796,0c0,-0.17815 0.14563,-0.32258 0.32526,-0.32258l1.04082,0c0.17963,0 0.32526,0.14443 0.32526,0.32258c0,0.17815 -0.14563,0.32258 -0.32526,0.32258l-1.04082,0c-0.17963,0 -0.32526,-0.14443 -0.32526,-0.32258zm-3.59059,1.47503c0.12702,0.12598 0.12702,0.33019 0,0.45617l-0.73597,0.72992c-0.12702,0.12598 -0.33296,0.12598 -0.45998,0c-0.12702,-0.12598 -0.12702,-0.33023 0,-0.45621l0.73597,-0.72988c0.12702,-0.12598 0.33296,-0.12598 0.45998,0zm2.97447,0.00004c0.12698,-0.12593 0.33293,-0.12593 0.45995,0l0.73599,0.72992c0.12702,0.12598 0.12702,0.33023 0,0.45621c-0.12702,0.12598 -0.33297,0.12598 -0.46,0l-0.73594,-0.72992c-0.12702,-0.12598 -0.12702,-0.33023 0,-0.45621zm-1.4872,0.61092c0.17963,0 0.32526,0.14443 0.32526,0.32258l0,1.03224c0,0.17815 -0.14563,0.32258 -0.32526,0.32258c-0.17963,0 -0.32526,-0.14443 -0.32526,-0.32258l0,-1.03224c0,-0.17815 0.14563,-0.32258 0.32526,-0.32258z" clip-rule="evenodd" fill-rule="evenodd"/>
  <path fill="#FF5733" opacity="undefined" d="m5,7c-1.10497,0 -2,-0.89503 -2,-2c0,-1.10497 0.89503,-2 2,-2c1.10497,0 2,0.89503 2,2c0,1.10497 -0.89503,2 -2,2z" id="svg_2"/>
 </g>

</svg>